<svg height="45" viewBox="0 0 252 45" width="252" xmlns="http://www.w3.org/2000/svg"><path d="m372.648996 135.352c1.107 0 1.107 0 2.2755 1.394s1.1685 1.394 1.1685 3.157c0 1.025 0 1.025-.738 3.239s-.738 2.214-1.0455 3.157-.3075.943-.8815 2.5625-.574 1.6195-1.0455 2.993-.4715 1.3735-1.271 3.6695-.7995 2.296-1.4555 4.264c-1.271 3.69-1.271 3.69-3.0955 5.699s-1.8245 2.009-4.7355 2.009-2.911 0-5.207-1.5375-2.296-1.5375-2.296-3.0955c0-.943 0-.943.8405-2.091s.8405-1.148 1.435-1.148.5945 0 1.558.9635.9635.9635 1.9885 1.927 1.025.9635 1.804.9635c.533 0 .533 0 .8815-.492s.3485-.492.574-.8815.2255-.3895.4715-1.066.246-.6765.451-1.2505.205-.574.492-1.517.287-.943.492-1.681c.697-2.214.697-2.214 1.189-3.936-1.353 1.763-1.353 1.763-2.788 2.8085s-1.435 1.0455-2.6445 1.0455-1.2095 0-2.993-1.8245-1.7835-1.8245-1.7835-4.018 0-2.1935.9635-5.8835.9635-3.69 2.3985-6.56 1.435-2.87 2.542-2.87c1.271 0 1.271 0 2.3985 1.0865s1.1275 1.0865 1.1275 2.091 0 1.0045-1.0045 3.2185-1.0045 2.214-2.0295 4.838-1.025 2.624-1.025 4.469c0 .246 0 .246.205.246.533 0 .533 0 2.255-1.9885s1.722-1.9885 3.8745-5.658 2.1525-3.6695 3.3005-7.2775c.246-1.025.246-1.025 1.353-1.025zm-83.279332 0c1.722 0 1.722 0 3.977 2.009s2.255 2.009 2.255 3.6695 0 1.6605-1.23 3.8335c.738.656.738.656.738 1.189s0 .533-.492 2.214-.492 1.681-.656 2.6035c-.093714.527143-.093714.527143-.167347.927102l-.099153.528398c-.1025.533-.1025.533-.1435.8405s-.041.3075-.1435.7585-.1025.451-.164.7175-.0615.2665-.164.615-.1025.3485-.2255.533-.123.1845-.287.3895c-.246.328-.246.328-.82.328s-.574 0-1.4145-1.148-.8405-1.148-1.2505-2.788c-3.854 3.936-3.854 3.936-6.478 3.936-1.763 0-1.763 0-3.813-1.9475s-2.05-1.9475-2.05-3.895 0-1.9475 1.763-5.5555 1.763-3.608 4.8175-6.683 3.0545-3.075 6.0475-3.075zm-128.498331-.041c3.116 0 3.116 0 5.248 2.1935s2.132 2.1935 2.132 5.289 0 3.0955-1.476 6.2935-1.476 3.198-4.141 5.3095-2.665 2.1115-5.699 2.1115c-2.255 0-2.255 0-3.895-2.009s-1.64-2.009-1.64-4.879c0-5.125 0-5.125 3.1775-9.717s3.1775-4.592 6.2935-4.592zm16.494333-11.439c.984 0 .984 0 2.542 1.804s1.558 1.804 1.558 3.444 0 1.64-.492 5.8425-.492 4.2025-1.025 6.7035c-3.403 14.842-3.403 14.842-4.756 14.842-.902 0-.902 0-2.2345-1.4555s-1.3325-1.4555-1.3325-2.3985c0-.082 0-.082 1.107-4.264s1.107-4.182 2.2345-10.7625 1.1275-6.5805 1.1275-12.5665c0-1.189 0-1.189 1.271-1.189zm12.189333 0c.984 0 .984 0 2.542 1.804s1.558 1.804 1.558 3.444 0 1.64-.492 5.8425-.492 4.2025-1.025 6.7035c-3.403 14.842-3.403 14.842-4.756 14.842-.902 0-.902 0-2.2345-1.4555s-1.3325-1.4555-1.3325-2.3985c0-.082 0-.082 1.107-4.264s1.107-4.182 2.2345-10.7625 1.1275-6.5805 1.1275-12.5665c0-1.189 0-1.189 1.271-1.189zm21.754666 11.152c1.558 0 1.558 0 2.993 1.2915s1.435 1.2915 1.435 2.3575c0 2.542 0 2.542-1.312 7.298 2.665-4.674 2.665-4.674 4.8585-7.6465s2.1935-2.9725 3.7105-2.9725c2.132 0 2.132 0 3.7515 1.9065s1.6195 1.9065 1.6195 4.0795c0 3.485 0 3.485-1.1275 7.2775s-1.1275 3.7925-2.46 5.8425-1.3325 2.05-2.706 2.05-1.3735 0-1.3735-1.927c0-1.476 0-1.476 1.353-5.945 1.025-3.69 1.025-3.69 1.025-5.289s0-1.599-.41-1.599c-.533 0-.533 0-1.0455.533s-.5125.533-.8405.943-.328.41-.7585 1.0455-.4305.6355-.738 1.148c-.25625.427083-.25625.427083-.626389 1.053472l-.304653.517056c-.367291.626389-.367291.626389-.606458 1.053472-.287.5125-.287.5125-.738 1.3325-3.813 7.134-3.813 7.134-5.986 7.134-.861 0-.861 0-2.173-1.4965s-1.312-1.4965-1.312-2.1935c0-.451 0-.451.5945-1.9475s.5945-1.4965.861-2.296.2665-.7995.451-1.7015.1845-.902.3075-1.9475.123-1.0455.1845-1.6195.0615-.574.1435-1.804c.369-5.33.369-5.33.6355-5.904s.2665-.574.5945-.574zm105.337332-11.152c.984 0 .984 0 2.583 1.7835s1.599 1.7835 1.599 3.3415c0 .779 0 .779-1.435 6.478s-1.435 5.699-1.722 6.888c-3.28 14.145-3.28 14.145-4.797 14.145-.861 0-.861 0-1.927-1.025s-1.066-1.025-1.066-2.009c0-.205 0-.205.041-.328-4.1 3.362-4.1 3.362-5.8835 3.362s-1.7835 0-3.444-1.9065-1.6605-1.9065-1.6605-3.4645 0-1.558.4305-3.4645.4305-1.9065 1.3325-4.0385.902-2.132 2.0705-3.9975 1.1685-1.8655 2.829-3.075 1.6605-1.2095 3.4235-1.2095c2.624 0 2.624 0 4.305 2.665 2.214-9.717 2.214-9.717 2.132-12.915 0-1.23 0-1.23 1.189-1.23zm11.656333 0c.984 0 .984 0 2.542 1.804s1.558 1.804 1.558 3.444 0 1.64-.492 5.8425-.492 4.2025-1.025 6.7035c-3.403 14.842-3.403 14.842-4.756 14.842-.902 0-.902 0-2.2345-1.4555s-1.3325-1.4555-1.3325-2.3985c0-.082 0-.082 1.107-4.264s1.107-4.182 2.2345-10.7625 1.1275-6.5805 1.1275-12.5665c0-1.189 0-1.189 1.271-1.189zm17.744833 11.48c2.6035 0 2.6035 0 4.8175 2.5625s2.214 2.5625 2.214 5.1045c0 2.009 0 2.009-2.7265 3.608s-2.7265 1.599-5.5965 1.599-2.87 0-4.715-.41c-.369 1.107-.369 1.107-.369 2.214s0 1.107.369 1.5785.369.4715 1.845.4715c3.075 0 3.075 0 5.2685-.574s2.1935-.574 2.2755-.574c1.681 0 1.681 0 1.681 1.107 0 1.599 0 1.599-2.6445 3.034s-2.6445 1.435-6.109 1.435-3.4645 0-5.5555-2.173-2.091-2.173-2.091-5.1455 0-2.9725 1.7425-6.2115 1.7425-3.239 4.3665-5.4325 2.624-2.1935 5.2275-2.1935zm-145.451831 0c1.435 0 1.435 0 2.5625 1.64s1.1275 1.64 1.1275 3.157c0 .779 0 .779-1.4145 5.5965s-1.4145 4.8175-2.8085 9.1225c-.492 1.599-.492 1.599-2.009 1.599-.902 0-.902 0-1.5785-.6765s-.6765-.6765-.6765-1.763 0-1.0865 1.0455-5.412 1.0455-4.3255 1.599-7.38.5535-3.0545 1.025-4.469.4715-1.4145 1.1275-1.4145zm68.219999-8.897c.984 0 .984 0 2.5625 1.968s1.5785 1.968 1.5785 3.69c0 .861 0 .861-1.599 7.052 2.05.492 2.05.492 2.05 1.599 0 1.271 0 1.271-3.034 2.009-1.476 5.658-1.476 5.658-1.927 7.4825s-.451 1.8245-.6765 2.747-.2255.9225-.4715 1.7835c-.451 1.681-.451 1.681-.861 1.681-.984 0-.984 0-2.3575-1.558s-1.3735-1.558-1.3735-3.116c0-.902 0-.902 1.722-7.995-4.715.779-4.715.779-7.257 1.435-1.271 4.879-1.271 4.879-1.681 6.7855s-.41 1.9065-.656 2.7675c-.451 1.681-.451 1.681-.861 1.681-.861 0-.861 0-2.419-1.9475s-1.558-1.9475-1.558-2.993 0-1.0455 1.23-6.3345c-.984-.984-.984-.984-.984-2.46 0-.82 0-.82 1.968-1.64 2.583-10.496 2.583-10.496 2.583-13.284 0-1.353 0-1.353 1.189-1.353.984 0 .984 0 2.5625 1.968s1.5785 1.968 1.5785 3.69c0 1.107 0 1.107-1.476 7.38 3.526-.615 3.526-.615 7.011-.738 1.968-8.241 1.968-8.241 1.968-10.947 0-1.353 0-1.353 1.189-1.353zm-126.817331-.082c1.148 0 1.148 0 2.501 2.0295s1.353 2.0295 1.353 3.3415 0 1.312-.533 1.312c-.246 0-.246 0-1.0455-.164s-.7995-.164-1.3735-.164c-2.05 0-2.05 0-4.797 2.624s-2.747 2.624-4.6945 6.273-1.9475 3.649-1.9475 6.314c0 1.312 0 1.312.41 1.9065s.41.5945 1.476.5945c2.829 0 2.829 0 5.74-.861s2.911-.861 4.797-1.7425 1.886-.8815 2.1525-.8815.2665 0 .533.4715.2665.4715.2665 1.1275c0 1.394 0 1.394-2.214 3.3005s-2.214 1.9065-5.3505 3.2595-3.1365 1.353-5.6785 1.353-2.542 0-5.3505-3.075-2.8085-3.075-2.8085-5.863c0-3.895 0-3.895 2.501-8.8765s2.501-4.9815 6.4575-8.6305 3.9565-3.649 7.6055-3.649zm20.143333 12.751c-1.763 1.025-1.763 1.025-3.5055 4.305s-1.7425 3.28-1.7425 5.7605 0 2.4805.492 3.1365c2.214-.984 2.214-.984 3.854-3.977s1.64-2.993 1.64-5.617 0-2.624-.738-3.608zm127.965331 1.435c-1.64 0-1.64 0-3.6695 2.132s-2.0295 2.132-3.321 4.551-1.2915 2.419-1.2915 3.567c0 .328 0 .328.1025.4305s.1025.1025.5125.1025c1.64 0 1.64 0 4.3665-2.2345s2.7265-2.2345 3.3825-5.6375c.041-.492.041-.492.697-.574-.123-2.337-.123-2.337-.779-2.337zm19.405333 0c-1.23 0-1.23 0-2.3575 1.312s-1.1275 1.312-1.7835 3.116c-1.394 3.813-1.394 3.813-1.394 5.781 0 .328 0 .328.1025.4305s.1025.1025.4715.1025c1.025 0 1.025 0 3.4645-1.763s2.4395-1.763 3.6285-4.469c-.041-.328-.041-.328-.041-1.435s0-1.107-.738-2.091-.738-.984-1.353-.984zm36.330166-.164c-.7585 0-.7585 0-1.9475 1.0865s-1.189 1.0865-2.255 2.8085c.369.041.369.041 1.066.041 5.617 0 5.617 0 5.617-1.968 0-.41 0-.41-.861-1.189s-.861-.779-1.6195-.779zm-143.012331-13.489c.9225 0 .9225 0 2.1935 2.214s1.271 2.214 1.271 3.2185 0 1.0045-.656 1.5375-.656.533-1.353.533c-1.189 0-1.189 0-2.747-1.558s-1.558-1.558-1.558-2.624 0-1.066.9635-2.1935.9635-1.1275 1.886-1.1275z" fill="#fff" fill-rule="evenodd" transform="translate(-125 -123)"/></svg>