<?xml version="1.0" encoding="UTF-8"?>
<svg width="259px" height="40px" viewBox="0 0 259 40" version="1.1" xmlns="http://www.w3.org/2000/svg" xmlns:xlink="http://www.w3.org/1999/xlink">
    <!-- Generator: Sketch 64 (93537) - https://sketch.com -->
    <title>Artboard</title>
    <desc>Created with Sketch.</desc>
    <g id="Artboard" stroke="none" stroke-width="1" fill="none" fill-rule="evenodd">
        <path d="M251.128906,10.0273438 L251.269531,10.484375 L251.324707,10.6113281 C251.483398,10.9238281 251.483398,10.9238281 251.849609,11.1875 C252.289063,11.5039062 252.289063,11.5039062 252.78125,11.7851562 L252.78125,11.7851562 L253.097656,11.9960938 L253.160938,12.1296875 C253.273438,12.3828125 253.273438,12.3828125 253.273438,12.5234375 C253.273438,12.6992188 253.273438,12.6992188 253.238281,12.8398438 L253.238281,12.8398438 L253.378906,13.1914062 L253.306671,13.3952026 C253.047119,14.0834961 253.047119,14.0834961 252.693359,14.421875 C252.289063,14.8085938 252.289063,14.8085938 251.902344,15.125 C251.585938,15.40625 251.585938,15.40625 251.322266,15.6347656 C251.058594,15.8632812 251.058594,15.8632812 250.917969,16.2148438 L250.917969,16.2148438 L250.671875,16.4960938 L250.514323,16.593316 C249.910156,16.9960938 249.910156,16.9960938 249.722656,17.6210938 L249.722656,17.6210938 L249.617188,18.0429688 L249.195313,18.0429688 L249.172241,18.0506592 C249.129395,18.0737305 249.129395,18.0737305 249.037109,18.1660156 C248.914063,18.2890625 248.914063,18.2890625 248.667969,18.78125 C248.421875,19.1328125 248.421875,19.1328125 248.316406,19.2382812 L248.316406,19.2382812 L248.140625,19.4140625 L248.101074,19.550293 L248.101074,19.550293 L248.052734,19.6777344 C248,19.8007812 248,19.8007812 247.929688,19.9765625 C247.472656,20.4335938 247.472656,20.4335938 247.367188,20.6621094 C247.261719,20.890625 247.261719,20.890625 247.121094,21.171875 C246.980469,21.453125 246.980469,21.453125 246.857422,21.7167969 C246.734375,21.9804688 246.734375,21.9804688 246.453125,22.2617188 L246.453125,22.2617188 L246.277344,22.7890625 L246.158691,22.9000244 C245.987305,23.074707 245.987305,23.074707 245.855469,23.2988281 C245.679688,23.5976562 245.679688,23.5976562 245.503906,23.9140625 C245.328125,24.3007812 245.328125,24.3007812 245.117188,24.6523438 C244.90625,25.0039062 244.90625,25.0039062 244.589844,25.2851562 C244.414063,25.8125 244.414063,25.8125 244.238281,26.1113281 C244.0625,26.4101562 244.0625,26.4101562 243.675781,26.796875 C243.324219,28.203125 243.324219,28.203125 242.023438,29.8554688 C241.988281,30.171875 241.988281,30.171875 241.830078,30.4707031 C241.671875,30.7695312 241.671875,30.7695312 241.496094,31.0507812 C241.425781,31.15625 241.425781,31.15625 241.355469,31.2792969 C241.285156,31.4023438 241.285156,31.4023438 241.25,31.4726562 L241.25,31.4726562 L241.179688,31.8242188 L241.058594,32.0039062 C240.933594,32.1757812 240.933594,32.1757812 240.792969,32.3164062 C240.722656,32.3867188 240.722656,32.3867188 240.65625,32.453125 L240.40625,32.703125 C240.335938,32.8085938 240.335938,32.8085938 240.160156,32.984375 L240.160156,32.984375 L239.632813,33.1953125 C237.066406,32.84375 237.066406,32.84375 236.503906,30.453125 L236.503906,30.453125 L236.539063,30.1015625 L236.60498,29.9213867 L236.60498,29.9213867 L236.662109,29.7324219 C236.714844,29.5390625 236.714844,29.5390625 236.785156,29.328125 C236.925781,28.8359375 236.925781,28.8359375 237.119141,28.34375 C237.3125,27.8515625 237.3125,27.8515625 237.699219,27.4648438 C237.769531,27.21875 237.769531,27.21875 238.015625,26.6738281 C238.261719,26.1289062 238.261719,26.1289062 238.859375,25.0390625 C239.351563,24.1953125 239.351563,24.1953125 239.632813,23.703125 C239.914063,23.2109375 239.914063,23.2109375 240.089844,22.9296875 C239.738281,22.3671875 239.738281,22.3671875 239.246094,21.9101562 C238.789063,21.03125 238.789063,21.03125 238.455078,20.2226562 C238.121094,19.4140625 238.121094,19.4140625 237.945313,18.78125 C237.910156,18.3242188 237.910156,18.3242188 237.839844,18.0078125 C237.769531,17.6914062 237.769531,17.6914062 237.699219,17.3398438 C237.59375,16.953125 237.59375,16.953125 237.523438,16.5664062 C237.453125,16.1796875 237.453125,16.1796875 237.453125,15.7578125 C237.277344,15.5117188 237.277344,15.5117188 237.242188,15.265625 L237.242188,15.265625 L237.3125,14.9140625 L237.347656,14.8092969 C237.403906,14.5871094 237.403906,14.5871094 237.347656,14.2636719 C237.277344,13.859375 237.277344,13.859375 237.171875,13.4375 C237.101563,13.0859375 237.101563,13.0859375 237.013672,12.6640625 C236.925781,12.2421875 236.925781,12.2421875 236.960938,11.8203125 C236.996094,11.3984375 236.996094,11.3984375 237.189453,11.0292969 C237.382813,10.6601562 237.382813,10.6601562 237.839844,10.3789062 L237.839844,10.3789062 L238.4375,10.34375 L238.749512,10.5151367 L238.749512,10.5151367 L239.052734,10.6777344 C239.351563,10.8359375 239.351563,10.8359375 239.632813,11.0117188 C240.019531,11.1875 240.019531,11.1875 240.371094,11.3632812 C240.722656,11.5390625 240.722656,11.5390625 241.109375,11.8203125 L241.109375,11.8203125 L241.355469,12.3125 L241.8125,12.6992188 L241.8125,13.0859375 L241.827881,13.1628418 C241.847656,13.2880859 241.847656,13.2880859 241.847656,13.4726562 C241.847656,13.9296875 241.847656,13.9296875 241.988281,14.0351562 L241.988281,14.0351562 L242.128906,14.4570312 L242.135498,14.6998291 C242.155273,15.059082 242.155273,15.059082 242.234375,15.3886719 C242.339844,15.828125 242.339844,15.828125 242.445313,16.2148438 C242.550781,16.6015625 242.550781,16.6015625 242.65625,17.0234375 C242.761719,17.4453125 242.761719,17.4453125 242.691406,17.9375 C242.902344,17.8320312 242.902344,17.8320312 243.042969,17.6914062 C243.113281,17.6210938 243.113281,17.6210938 243.183594,17.5859375 L243.230469,17.5585938 C243.277344,17.5273438 243.277344,17.5273438 243.324219,17.4804688 L243.324219,17.4804688 L245.398438,14.6679688 L245.328125,14.3164062 L246.066406,13.6132812 L246.251953,13.4296875 C246.435547,13.25 246.435547,13.25 246.611328,13.0859375 C246.875,12.8398438 246.875,12.8398438 247.050781,12.5585938 L247.050781,12.5585938 L247.4375,12.2773438 L247.591719,12.0489062 C248.700781,10.4914063 248.700781,10.4914063 250.636719,10.0976562 L250.636719,10.0976562 L251.128906,10.0273438 Z M203.210938,10.2734375 C203.84375,10.5898438 203.84375,10.5898438 204.6875,10.8886719 C205.53125,11.1875 205.53125,11.1875 206.09375,11.1875 C206.375,11.3632812 206.375,11.3632812 206.445313,11.4511719 C206.515625,11.5390625 206.515625,11.5390625 206.585938,11.609375 C206.972656,12.0664062 206.972656,12.0664062 207.253906,12.5410156 C207.535156,13.015625 207.535156,13.015625 207.429688,13.7890625 C207.21875,14.1054688 207.21875,14.1054688 207.113281,14.1054688 C206.9375,14.8085938 206.9375,14.8085938 206.744141,15.3007812 C206.550781,15.7929688 206.550781,15.7929688 206.339844,16.2851562 C206.09375,16.8125 206.09375,16.8125 205.882813,17.3398438 C205.671875,17.8671875 205.671875,17.8671875 205.53125,18.640625 C205.390625,18.8164062 205.390625,18.8164062 205.337891,18.9570312 C205.285156,19.0976562 205.285156,19.0976562 205.214844,19.2734375 C205.144531,19.4492188 205.144531,19.4492188 205.056641,19.6425781 C204.96875,19.8359375 204.96875,19.8359375 204.792969,19.9765625 C204.6875,20.890625 204.6875,20.890625 204.458984,21.453125 C204.230469,22.015625 204.230469,22.015625 203.984375,22.578125 C203.5625,23.5976562 203.5625,23.5976562 203.228516,24.6171875 C202.894531,25.6367188 202.894531,25.6367188 202.824219,26.9375 C203,26.8671875 203,26.8671875 203.158203,26.8671875 L203.158203,26.8671875 L203.457031,26.8671875 L203.621826,26.8737793 C203.878906,26.8935547 203.878906,26.8935547 204.195313,26.9726562 C205.25,26.4101562 205.25,26.4101562 206.498047,26.3046875 C207.746094,26.1992188 207.746094,26.1992188 208.976563,26.1640625 L208.976563,26.1640625 L209.960938,26.1640625 L210.202637,26.159668 C210.558594,26.1464844 210.558594,26.1464844 210.875,26.09375 C211.191406,26.2695312 211.191406,26.2695312 211.279297,26.2871094 C211.367188,26.3046875 211.367188,26.3046875 211.542969,26.3046875 C211.789063,26.3046875 211.789063,26.3046875 211.964844,26.3398438 C212.386719,26.7265625 212.386719,26.7265625 212.773438,26.9023438 C213.160156,27.078125 213.160156,27.078125 213.582031,27.21875 C213.96875,27.359375 213.96875,27.359375 214.337891,27.5175781 C214.707031,27.6757812 214.707031,27.6757812 215.058594,27.9570312 L215.058594,27.9570312 L215.304688,29.46875 L215.36926,29.5548469 C215.545759,29.8002232 215.545759,29.8002232 215.515625,29.890625 C215.515625,30.171875 215.515625,30.171875 215.375,30.3125 L215.375,30.3125 L215.445313,30.6992188 L215.278809,30.7353516 C214.885742,30.828125 214.885742,30.828125 214.724609,30.9453125 C214.53125,31.0859375 214.53125,31.0859375 214.355469,31.2617188 C214.074219,31.296875 214.074219,31.296875 213.951172,31.296875 L213.951172,31.296875 L213.722656,31.296875 L213.552734,31.3017578 C213.113281,31.3261719 213.113281,31.3261719 212.527344,31.4726562 C211.578125,31.15625 211.578125,31.15625 210.558594,31.15625 C210.171875,31.15625 210.171875,31.15625 209.75,31.1914062 L209.75,31.1914062 L208.90625,31.2617188 L208.623047,31.3046875 C208.337891,31.34375 208.337891,31.34375 208.044922,31.3671875 C207.605469,31.4023438 207.605469,31.4023438 207.148438,31.4023438 L207.148438,31.4023438 L206.339844,31.6132812 L205.939063,31.7398438 C205.123438,31.9929688 205.123438,31.9929688 204.195313,32.2460938 C203.035156,32.5625 203.035156,32.5625 201.875,32.5625 C200.117188,32.5625 200.117188,32.5625 199.097656,31.6835938 C198.921875,31.296875 198.921875,31.296875 198.78125,31.15625 C198.675781,31.015625 198.675781,31.015625 198.587891,30.8574219 C198.5,30.6992188 198.5,30.6992188 198.464844,30.4179688 C198.042969,29.9257812 198.042969,29.9257812 197.796875,29.2753906 C197.550781,28.625 197.550781,28.625 197.462891,27.9394531 C197.375,27.2539062 197.375,27.2539062 197.427734,26.5507812 C197.480469,25.8476562 197.480469,25.8476562 197.65625,25.2148438 C197.726563,25.0742188 197.726563,25.0742188 197.744141,24.9335938 C197.761719,24.7929688 197.761719,24.7929688 197.796875,24.6171875 C197.9375,24.0546875 197.9375,24.0546875 198.095703,23.5273438 C198.253906,23 198.253906,23 198.535156,22.6132812 C198.394531,22.296875 198.394531,22.296875 198.535156,21.9101562 C198.675781,21.5234375 198.675781,21.5234375 198.851563,21.2070312 C199.34375,19.8710938 199.34375,19.8710938 199.677734,18.9394531 C200.011719,18.0078125 200.011719,18.0078125 200.363281,17.09375 C200.960938,15.5117188 200.960938,15.5117188 201.488281,13.9648438 C202.015625,12.4179688 202.015625,12.4179688 202.4375,10.625 C202.71875,10.4492188 202.71875,10.4492188 202.859375,10.3789062 C203.070313,10.3085938 203.070313,10.3085938 203.210938,10.2734375 Z M74.9960938,10.2734375 C75.6289063,10.5898438 75.6289063,10.5898438 76.4726563,10.8886719 C77.3164063,11.1875 77.3164063,11.1875 77.8789063,11.1875 C78.1601563,11.3632812 78.1601563,11.3632812 78.2304688,11.4511719 C78.3007813,11.5390625 78.3007813,11.5390625 78.3710938,11.609375 C78.7578125,12.0664062 78.7578125,12.0664062 79.0390625,12.5410156 C79.3203125,13.015625 79.3203125,13.015625 79.2148438,13.7890625 C79.0039063,14.1054688 79.0039063,14.1054688 78.8984375,14.1054688 C78.7226563,14.8085938 78.7226563,14.8085938 78.5292969,15.3007812 C78.3359375,15.7929688 78.3359375,15.7929688 78.125,16.2851562 C77.8789063,16.8125 77.8789063,16.8125 77.6679688,17.3398438 C77.4570313,17.8671875 77.4570313,17.8671875 77.3164063,18.640625 C77.1757813,18.8164062 77.1757813,18.8164062 77.1230469,18.9570312 C77.0703125,19.0976562 77.0703125,19.0976562 77,19.2734375 C76.9296875,19.4492188 76.9296875,19.4492188 76.8417969,19.6425781 C76.7539063,19.8359375 76.7539063,19.8359375 76.578125,19.9765625 C76.4726563,20.890625 76.4726563,20.890625 76.2441406,21.453125 C76.015625,22.015625 76.015625,22.015625 75.7695313,22.578125 C75.3476563,23.5976562 75.3476563,23.5976562 75.0136719,24.6171875 C74.6796875,25.6367188 74.6796875,25.6367188 74.609375,26.9375 C74.7851563,26.8671875 74.7851563,26.8671875 74.9433594,26.8671875 L74.9433594,26.8671875 L75.2421875,26.8671875 L75.4069824,26.8737793 C75.6640625,26.8935547 75.6640625,26.8935547 75.9804688,26.9726562 C77.0351563,26.4101562 77.0351563,26.4101562 78.2832031,26.3046875 C79.53125,26.1992188 79.53125,26.1992188 80.7617188,26.1640625 L80.7617188,26.1640625 L81.7460938,26.1640625 L81.987793,26.159668 C82.34375,26.1464844 82.34375,26.1464844 82.6601563,26.09375 C82.9765625,26.2695312 82.9765625,26.2695312 83.0644531,26.2871094 C83.1523438,26.3046875 83.1523438,26.3046875 83.328125,26.3046875 C83.5742188,26.3046875 83.5742188,26.3046875 83.75,26.3398438 C84.171875,26.7265625 84.171875,26.7265625 84.5585938,26.9023438 C84.9453125,27.078125 84.9453125,27.078125 85.3671875,27.21875 C85.7539063,27.359375 85.7539063,27.359375 86.1230469,27.5175781 C86.4921875,27.6757812 86.4921875,27.6757812 86.84375,27.9570312 L86.84375,27.9570312 L87.0898438,29.46875 L87.1544165,29.5548469 C87.3309152,29.8002232 87.3309152,29.8002232 87.3007813,29.890625 C87.3007813,30.171875 87.3007813,30.171875 87.1601563,30.3125 L87.1601563,30.3125 L87.2304688,30.6992188 L87.0639648,30.7353516 C86.6708984,30.828125 86.6708984,30.828125 86.5097656,30.9453125 C86.3164063,31.0859375 86.3164063,31.0859375 86.140625,31.2617188 C85.859375,31.296875 85.859375,31.296875 85.7363281,31.296875 L85.7363281,31.296875 L85.5078125,31.296875 L85.3378906,31.3017578 C84.8984375,31.3261719 84.8984375,31.3261719 84.3125,31.4726562 C83.3632813,31.15625 83.3632813,31.15625 82.34375,31.15625 C81.9570313,31.15625 81.9570313,31.15625 81.5351563,31.1914062 L81.5351563,31.1914062 L80.6914063,31.2617188 L80.4082031,31.3046875 C80.1230469,31.34375 80.1230469,31.34375 79.8300781,31.3671875 C79.390625,31.4023438 79.390625,31.4023438 78.9335938,31.4023438 L78.9335938,31.4023438 L78.125,31.6132812 L77.7242188,31.7398438 C76.9085938,31.9929688 76.9085938,31.9929688 75.9804688,32.2460938 C74.8203125,32.5625 74.8203125,32.5625 73.6601563,32.5625 C71.9023438,32.5625 71.9023438,32.5625 70.8828125,31.6835938 C70.7070313,31.296875 70.7070313,31.296875 70.5664063,31.15625 C70.4609375,31.015625 70.4609375,31.015625 70.3730469,30.8574219 C70.2851563,30.6992188 70.2851563,30.6992188 70.25,30.4179688 C69.828125,29.9257812 69.828125,29.9257812 69.5820313,29.2753906 C69.3359375,28.625 69.3359375,28.625 69.2480469,27.9394531 C69.1601563,27.2539062 69.1601563,27.2539062 69.2128906,26.5507812 C69.265625,25.8476562 69.265625,25.8476562 69.4414063,25.2148438 C69.5117188,25.0742188 69.5117188,25.0742188 69.5292969,24.9335938 C69.546875,24.7929688 69.546875,24.7929688 69.5820313,24.6171875 C69.7226563,24.0546875 69.7226563,24.0546875 69.8808594,23.5273438 C70.0390625,23 70.0390625,23 70.3203125,22.6132812 C70.1796875,22.296875 70.1796875,22.296875 70.3203125,21.9101562 C70.4609375,21.5234375 70.4609375,21.5234375 70.6367188,21.2070312 C71.1289063,19.8710938 71.1289063,19.8710938 71.4628906,18.9394531 C71.796875,18.0078125 71.796875,18.0078125 72.1484375,17.09375 C72.7460938,15.5117188 72.7460938,15.5117188 73.2734375,13.9648438 C73.8007813,12.4179688 73.8007813,12.4179688 74.2226563,10.625 C74.5039063,10.4492188 74.5039063,10.4492188 74.6445313,10.3789062 C74.8554688,10.3085938 74.8554688,10.3085938 74.9960938,10.2734375 Z M55.8007813,10.2734375 C56.4335938,10.5898438 56.4335938,10.5898438 57.2773438,10.8886719 C58.1210938,11.1875 58.1210938,11.1875 58.6835938,11.1875 C58.9648438,11.3632812 58.9648438,11.3632812 59.0351563,11.4511719 C59.1054688,11.5390625 59.1054688,11.5390625 59.1757813,11.609375 C59.5625,12.0664062 59.5625,12.0664062 59.84375,12.5410156 C60.125,13.015625 60.125,13.015625 60.0195313,13.7890625 C59.8085938,14.1054688 59.8085938,14.1054688 59.703125,14.1054688 C59.5273438,14.8085938 59.5273438,14.8085938 59.3339844,15.3007812 C59.140625,15.7929688 59.140625,15.7929688 58.9296875,16.2851562 C58.6835938,16.8125 58.6835938,16.8125 58.4726563,17.3398438 C58.2617188,17.8671875 58.2617188,17.8671875 58.1210938,18.640625 C57.9804688,18.8164062 57.9804688,18.8164062 57.9277344,18.9570312 C57.875,19.0976562 57.875,19.0976562 57.8046875,19.2734375 C57.734375,19.4492188 57.734375,19.4492188 57.6464844,19.6425781 C57.5585938,19.8359375 57.5585938,19.8359375 57.3828125,19.9765625 C57.2773438,20.890625 57.2773438,20.890625 57.0488281,21.453125 C56.8203125,22.015625 56.8203125,22.015625 56.5742188,22.578125 C56.1523438,23.5976562 56.1523438,23.5976562 55.8183594,24.6171875 C55.484375,25.6367188 55.484375,25.6367188 55.4140625,26.9375 C55.5898438,26.8671875 55.5898438,26.8671875 55.7480469,26.8671875 L55.7480469,26.8671875 L56.046875,26.8671875 L56.2116699,26.8737793 C56.46875,26.8935547 56.46875,26.8935547 56.7851563,26.9726562 C57.8398438,26.4101562 57.8398438,26.4101562 59.0878906,26.3046875 C60.3359375,26.1992188 60.3359375,26.1992188 61.5664063,26.1640625 L61.5664063,26.1640625 L62.5507813,26.1640625 L62.7924805,26.159668 C63.1484375,26.1464844 63.1484375,26.1464844 63.4648438,26.09375 C63.78125,26.2695312 63.78125,26.2695312 63.8691406,26.2871094 C63.9570313,26.3046875 63.9570313,26.3046875 64.1328125,26.3046875 C64.3789063,26.3046875 64.3789063,26.3046875 64.5546875,26.3398438 C64.9765625,26.7265625 64.9765625,26.7265625 65.3632813,26.9023438 C65.75,27.078125 65.75,27.078125 66.171875,27.21875 C66.5585938,27.359375 66.5585938,27.359375 66.9277344,27.5175781 C67.296875,27.6757812 67.296875,27.6757812 67.6484375,27.9570312 L67.6484375,27.9570312 L67.8945313,29.46875 L67.959104,29.5548469 C68.1356027,29.8002232 68.1356027,29.8002232 68.1054688,29.890625 C68.1054688,30.171875 68.1054688,30.171875 67.9648438,30.3125 L67.9648438,30.3125 L68.0351563,30.6992188 L67.8686523,30.7353516 C67.4755859,30.828125 67.4755859,30.828125 67.3144531,30.9453125 C67.1210938,31.0859375 67.1210938,31.0859375 66.9453125,31.2617188 C66.6640625,31.296875 66.6640625,31.296875 66.5410156,31.296875 L66.5410156,31.296875 L66.3125,31.296875 L66.1425781,31.3017578 C65.703125,31.3261719 65.703125,31.3261719 65.1171875,31.4726562 C64.1679688,31.15625 64.1679688,31.15625 63.1484375,31.15625 C62.7617188,31.15625 62.7617188,31.15625 62.3398438,31.1914062 L62.3398438,31.1914062 L61.4960938,31.2617188 L61.2128906,31.3046875 C60.9277344,31.34375 60.9277344,31.34375 60.6347656,31.3671875 C60.1953125,31.4023438 60.1953125,31.4023438 59.7382813,31.4023438 L59.7382813,31.4023438 L58.9296875,31.6132812 L58.5289063,31.7398438 C57.7132813,31.9929688 57.7132813,31.9929688 56.7851563,32.2460938 C55.625,32.5625 55.625,32.5625 54.4648438,32.5625 C52.7070313,32.5625 52.7070313,32.5625 51.6875,31.6835938 C51.5117188,31.296875 51.5117188,31.296875 51.3710938,31.15625 C51.265625,31.015625 51.265625,31.015625 51.1777344,30.8574219 C51.0898438,30.6992188 51.0898438,30.6992188 51.0546875,30.4179688 C50.6328125,29.9257812 50.6328125,29.9257812 50.3867188,29.2753906 C50.140625,28.625 50.140625,28.625 50.0527344,27.9394531 C49.9648438,27.2539062 49.9648438,27.2539062 50.0175781,26.5507812 C50.0703125,25.8476562 50.0703125,25.8476562 50.2460938,25.2148438 C50.3164063,25.0742188 50.3164063,25.0742188 50.3339844,24.9335938 C50.3515625,24.7929688 50.3515625,24.7929688 50.3867188,24.6171875 C50.5273438,24.0546875 50.5273438,24.0546875 50.6855469,23.5273438 C50.84375,23 50.84375,23 51.125,22.6132812 C50.984375,22.296875 50.984375,22.296875 51.125,21.9101562 C51.265625,21.5234375 51.265625,21.5234375 51.4414063,21.2070312 C51.9335938,19.8710938 51.9335938,19.8710938 52.2675781,18.9394531 C52.6015625,18.0078125 52.6015625,18.0078125 52.953125,17.09375 C53.5507813,15.5117188 53.5507813,15.5117188 54.078125,13.9648438 C54.6054688,12.4179688 54.6054688,12.4179688 55.0273438,10.625 C55.3085938,10.4492188 55.3085938,10.4492188 55.4492188,10.3789062 C55.6601563,10.3085938 55.6601563,10.3085938 55.8007813,10.2734375 Z M181.730469,10.34375 C183.628906,10.9414062 183.628906,10.9414062 185.369141,11.7851562 C187.109375,12.6289062 187.109375,12.6289062 188.796875,13.015625 C190.0625,13.9296875 190.0625,13.9296875 191.398438,14.8261719 C192.734375,15.7226562 192.734375,15.7226562 193.824219,16.7949219 C194.914063,17.8671875 194.914063,17.8671875 195.652344,19.2382812 C196.390625,20.609375 196.390625,20.609375 196.496094,22.5078125 C196.460938,22.6835938 196.460938,22.6835938 196.425781,22.8066406 C196.390625,22.9296875 196.390625,22.9296875 196.355469,23.0351562 C196.320313,23.140625 196.320313,23.140625 196.320313,23.2988281 L196.320313,23.2988281 L196.320313,23.703125 L196.103926,24.0698047 C195.105664,25.6929687 195.105664,25.6929687 193.666016,26.8320312 C192.066406,28.0976562 192.066406,28.0976562 190.150391,29.0644531 C188.234375,30.03125 188.234375,30.03125 186.160156,30.8222656 C184.085938,31.6132812 184.085938,31.6132812 182.117188,32.5273438 C181.273438,32.3164062 181.273438,32.3164062 180.833984,31.8242188 C180.394531,31.3320312 180.394531,31.3320312 180.166016,30.6816406 C179.9375,30.03125 179.9375,30.03125 179.849609,29.2402344 C179.761719,28.4492188 179.761719,28.4492188 179.691406,27.6054688 C179.796875,27.21875 179.796875,27.21875 179.990234,26.9550781 C180.183594,26.6914062 180.183594,26.6914062 180.183594,26.1992188 C180.464844,25.2851562 180.464844,25.2851562 180.746094,24.40625 C181.027344,23.5273438 181.027344,23.5273438 181.097656,22.6132812 C181.203125,22.3320312 181.203125,22.3320312 181.484375,22.2265625 C181.660156,20.5390625 181.660156,20.5390625 181.501953,18.7988281 C181.34375,17.0585938 181.34375,17.0585938 180.921875,15.546875 C180.957031,15.1953125 180.957031,15.1953125 181.009766,15.0371094 C181.0625,14.8789062 181.0625,14.8789062 180.992188,14.8085938 C180.957031,14.5273438 180.957031,14.5273438 181.185547,14.5273438 L181.185547,14.5273438 L181.660156,14.5273438 L181.652422,14.3164062 C181.621484,13.8945312 181.621484,13.8945312 181.466797,13.4726562 C181.273438,12.9453125 181.273438,12.9453125 181.097656,12.2773438 C181.34375,11.75 181.34375,11.75 181.414063,11.2402344 C181.484375,10.7304688 181.484375,10.7304688 181.730469,10.34375 Z M40.9296875,9.81640625 C41.3515625,10.0273438 41.3515625,10.0273438 41.8613281,10.0976562 C42.3710938,10.1679688 42.3710938,10.1679688 42.7578125,10.5546875 C42.7929688,10.90625 42.7929688,10.90625 42.96875,11.0996094 C43.1445313,11.2929688 43.1445313,11.2929688 43.3554688,11.4511719 C43.5664063,11.609375 43.5664063,11.609375 43.7597656,11.7851562 C43.953125,11.9609375 43.953125,11.9609375 44.0234375,12.2773438 C44.1640625,12.3125 44.1640625,12.3125 44.2167969,12.2421875 C44.2695313,12.171875 44.2695313,12.171875 44.4101563,12.2070312 C44.515625,12.6992188 44.515625,12.6992188 44.65625,12.8574219 C44.796875,13.015625 44.796875,13.015625 44.9375,13.4726562 C44.7617188,13.8242188 44.7617188,13.8242188 44.6738281,14.1933594 C44.5859375,14.5625 44.5859375,14.5625 44.234375,14.7382812 C44.1992188,14.984375 44.1992188,14.984375 44.375,15.0019531 C44.5507813,15.0195312 44.5507813,15.0195312 44.5859375,15.1953125 C44.6210938,15.5117188 44.6210938,15.5117188 44.4804688,15.6523438 C45.3242188,17.0234375 45.3242188,17.0234375 45.9921875,18.5527344 C46.6601563,20.0820312 46.6601563,20.0820312 47.5039063,21.453125 C47.46875,21.875 47.46875,21.875 47.5742188,22.2617188 C47.6796875,22.6484375 47.6796875,22.6484375 47.8378906,23.0175781 C47.9960938,23.3867188 47.9960938,23.3867188 48.1367188,23.7734375 C48.2773438,24.1601562 48.2773438,24.1601562 48.3476563,24.546875 C48.4179688,25.0390625 48.4179688,25.0390625 48.3476563,25.6191406 C48.2773438,26.1992188 48.2773438,26.1992188 48.1015625,26.7441406 C47.9257813,27.2890625 47.9257813,27.2890625 47.6445313,27.7285156 C47.3632813,28.1679688 47.3632813,28.1679688 46.9765625,28.3789062 C46.484375,29.0117188 46.484375,29.0117188 45.78125,29.3632812 C45.078125,29.7148438 45.078125,29.7148438 44.4804688,30.2070312 C44.09375,30.453125 44.09375,30.453125 43.6191406,30.5585938 C43.1445313,30.6640625 43.1445313,30.6640625 42.6523438,30.7695312 C42.265625,30.9804688 42.265625,30.9804688 41.7382813,31.2089844 C41.2109375,31.4375 41.2109375,31.4375 40.6484375,31.6308594 C40.0859375,31.8242188 40.0859375,31.8242188 39.5234375,31.9121094 C38.9609375,32 38.9609375,32 38.5390625,31.9648438 C37.484375,32.3515625 37.484375,32.3515625 36.4824219,32.4746094 C35.4804688,32.5976562 35.4804688,32.5976562 34.1445313,32.3164062 C32.8789063,32.4921875 32.8789063,32.4921875 31.8066406,32.2109375 C30.734375,31.9296875 30.734375,31.9296875 29.9082031,31.3144531 C29.0820313,30.6992188 29.0820313,30.6992188 28.4667969,29.8378906 C27.8515625,28.9765625 27.8515625,28.9765625 27.4648438,28.0273438 C27.1835938,26.0234375 27.1835938,26.0234375 27.6054688,24.3886719 C28.0273438,22.7539062 28.0273438,22.7539062 28.8183594,21.3652344 C29.609375,19.9765625 29.609375,19.9765625 30.6289063,18.7988281 C31.6484375,17.6210938 31.6484375,17.6210938 32.5976563,16.4960938 C32.8085938,16.5664062 32.8085938,16.5664062 32.9316406,16.4785156 C33.0546875,16.390625 33.0546875,16.390625 33.1601563,16.2324219 C33.265625,16.0742188 33.265625,16.0742188 33.3886719,15.9335938 C33.5117188,15.7929688 33.5117188,15.7929688 33.6875,15.7578125 C33.9335938,15.2304688 33.9335938,15.2304688 34.4082031,14.9667969 C34.8828125,14.703125 34.8828125,14.703125 35.1640625,14.2109375 C35.4804688,14.140625 35.4804688,14.140625 35.6914063,14 C35.9023438,13.859375 35.9023438,13.859375 36.0957031,13.6835938 C36.2890625,13.5078125 36.2890625,13.5078125 36.5,13.3496094 C36.7109375,13.1914062 36.7109375,13.1914062 36.9921875,13.1210938 L36.9921875,13.1210938 L36.9921875,12.734375 L37.1661751,12.6522242 C37.6676897,12.4003906 37.6676897,12.4003906 37.9238281,12.0839844 C38.2226563,11.7148438 38.2226563,11.7148438 38.6445313,11.1875 C38.9609375,11.1523438 38.9609375,11.1523438 39.1542969,11.1523438 C39.3476563,11.1523438 39.3476563,11.1523438 39.734375,11.0820312 C40.015625,10.5898438 40.015625,10.5898438 40.2441406,10.34375 C40.4726563,10.0976562 40.4726563,10.0976562 40.9296875,9.81640625 Z M169.707031,10.4492188 L170.164063,10.7304688 L170.260742,10.7821045 C170.418945,10.8579102 170.418945,10.8579102 170.65625,10.9238281 C170.972656,11.0117188 170.972656,11.0117188 171.324219,11.1171875 C171.957031,11.2578125 171.957031,11.2578125 172.519531,11.4335938 C173.082031,11.609375 173.082031,11.609375 173.433594,11.9609375 C173.644531,12.5234375 173.644531,12.5234375 173.679688,12.8046875 C173.714844,13.0859375 173.714844,13.0859375 173.785156,13.3671875 C173.890625,13.9648438 173.890625,13.9648438 173.978516,14.5625 C174.066406,15.1601562 174.066406,15.1601562 174.101563,15.8984375 C174.277344,16.4960938 174.277344,16.4960938 174.400391,17.0761719 C174.523438,17.65625 174.523438,17.65625 174.628906,18.2539062 C174.804688,19.0976562 174.804688,19.0976562 174.980469,19.8886719 C175.15625,20.6796875 175.15625,20.6796875 175.4375,21.3828125 C175.71875,21.3828125 175.71875,21.3828125 175.789063,21.4179688 C175.964844,21.3476562 175.964844,21.3476562 176.158203,21.3125 C176.351563,21.2773438 176.351563,21.2773438 176.597656,21.2421875 L176.597656,21.2421875 L176.984375,21.2070312 L177.125,21.5585938 L177.144531,21.6171875 C177.212891,21.7636719 177.212891,21.7636719 177.476563,21.9101562 C177.933594,21.9453125 177.933594,21.9453125 178.144531,22.1035156 C178.355469,22.2617188 178.355469,22.2617188 178.53125,22.4375 C178.671875,22.578125 178.671875,22.578125 178.8125,22.6484375 L178.8125,22.6484375 L179.339844,22.859375 L179.058594,23.3867188 L178.933105,23.5961914 C178.598633,24.1162109 178.598633,24.1162109 178.056641,24.5996094 C177.40625,25.1796875 177.40625,25.1796875 176.597656,25.5664062 C176.632813,25.7773438 176.632813,25.7773438 176.650391,25.9707031 C176.667969,26.1640625 176.667969,26.1640625 176.738281,26.375 C176.84375,26.9726562 176.84375,26.9726562 176.914063,27.6054688 C176.984375,28.2382812 176.984375,28.2382812 176.914063,28.90625 L176.914063,28.90625 L176.84375,29.046875 L176.751641,29.2866406 C176.551953,29.7675781 176.551953,29.7675781 176.228516,30.2597656 C175.824219,30.875 175.824219,30.875 175.279297,31.3496094 C174.734375,31.8242188 174.734375,31.8242188 174.066406,32.140625 C173.398438,32.4570312 173.398438,32.4570312 172.660156,32.4921875 C172.203125,32.3867188 172.203125,32.3867188 172.044922,32.2636719 C171.886719,32.140625 171.886719,32.140625 171.710938,32.0351562 C171.605469,31.9648438 171.605469,31.9648438 171.517578,31.9121094 C171.429688,31.859375 171.429688,31.859375 171.359375,31.8242188 L171.359375,31.8242188 L170.9375,31.6484375 L171.078125,31.1914062 L171.099219,31.0838281 C171.127344,30.8785156 171.127344,30.8785156 171.042969,30.7519531 C170.9375,30.59375 170.9375,30.59375 170.621094,30.3125 C170.515625,30.2070312 170.515625,30.2070312 170.410156,30.1015625 C170.304688,29.9960938 170.304688,29.9960938 170.234375,29.890625 L170.234375,29.890625 L169.636719,29.2226562 L170.585938,28.9765625 L170.774089,28.9201389 C171.498047,28.6875 171.498047,28.6875 171.763672,28.34375 C172.0625,27.9570312 172.0625,27.9570312 171.992188,27.0429688 C171.289063,26.9023438 171.289063,26.9023438 170.814453,27.0078125 C170.339844,27.1132812 170.339844,27.1132812 169.847656,27.2539062 C169.214844,27.4296875 169.214844,27.4296875 168.564453,27.5527344 C167.914063,27.6757812 167.914063,27.6757812 167.140625,27.6757812 C166.859375,27.6757812 166.859375,27.6757812 166.613281,27.6582031 C166.367188,27.640625 166.367188,27.640625 166.085938,27.6054688 L166.085938,27.6054688 L165.734375,27.5351562 L165.710938,27.4155273 C165.652344,27.1396484 165.652344,27.1396484 165.59375,27.0957031 C165.523438,27.0429688 165.523438,27.0429688 165.453125,26.9726562 C165.277344,26.796875 165.277344,26.796875 165.083984,26.4980469 C164.890625,26.1992188 164.890625,26.1992188 164.996094,25.7421875 C164.820313,25.4257812 164.820313,25.4257812 164.785156,25.109375 C164.574219,25.53125 164.574219,25.53125 164.46875,25.9882812 L164.46875,25.9882812 L164.328125,26.3398438 L163.976563,26.4101562 L163.943604,26.4332275 C163.897461,26.4760742 163.897461,26.4760742 163.871094,26.5683594 C163.835938,26.6914062 163.835938,26.6914062 163.835938,26.7617188 L163.835938,26.7617188 L163.660156,27.359375 L163.589844,27.425293 L163.519531,27.4824219 C163.449219,27.5351562 163.449219,27.5351562 163.378906,27.6054688 C163.308594,27.921875 163.308594,27.921875 163.203125,28.2382812 C163.097656,28.5546875 163.097656,28.5546875 162.992188,28.8359375 C162.816406,29.2929688 162.816406,29.2929688 162.693359,29.7324219 C162.570313,30.171875 162.570313,30.171875 162.605469,30.59375 L162.605469,30.59375 L162.464844,30.9804688 L162.374756,31.0804443 C162.236328,31.222168 162.236328,31.222168 162.078125,31.3144531 C161.867188,31.4375 161.867188,31.4375 161.65625,31.5429688 C161.585938,31.6132812 161.585938,31.6132812 161.462891,31.6660156 C161.339844,31.71875 161.339844,31.71875 161.269531,31.7539062 L161.269531,31.7539062 L161.164063,32.140625 L160.742188,32.2109375 L160.596641,32.2376563 C160.323828,32.2882812 160.323828,32.2882812 160.197266,32.3164062 C160.039063,32.3515625 160.039063,32.3515625 159.828125,32.3515625 L159.828125,32.3515625 L159.476563,32.3164062 L159.328906,32.1947656 C159.047656,31.9613281 159.047656,31.9613281 158.878906,31.8066406 C158.667969,31.6132812 158.667969,31.6132812 158.386719,31.4375 C158.070313,31.015625 158.070313,31.015625 158.035156,30.8046875 C158,30.59375 158,30.59375 157.964844,30.4179688 C157.894531,30.2070312 157.894531,30.2070312 157.876953,30.0664062 C157.859375,29.9257812 157.859375,29.9257812 157.789063,29.8554688 L157.789063,29.8554688 L157.332031,29.4335938 L157.71875,29.1171875 L157.753906,28.5195312 L158.038672,27.8079687 C158.615234,26.3960937 158.615234,26.3960937 159.248047,25.0742188 C160.039063,23.421875 160.039063,23.421875 160.882813,21.6992188 C161.164063,21.1367188 161.164063,21.1367188 161.427734,20.5742188 C161.691406,20.0117188 161.691406,20.0117188 161.972656,19.4492188 C161.9375,19.34375 161.9375,19.34375 161.9375,19.203125 C161.9375,19.0625 161.9375,19.0625 162.007813,18.8867188 C162.394531,18.2890625 162.394531,18.2890625 162.640625,17.8144531 C162.886719,17.3398438 162.886719,17.3398438 163.132813,16.8476562 C163.414063,16.25 163.414063,16.25 163.712891,15.6875 C164.011719,15.125 164.011719,15.125 164.46875,14.5273438 L164.46875,14.5273438 L165.03125,14.28125 L165.105469,14.2558594 C165.183594,14.2285156 165.183594,14.2285156 165.277344,14.1933594 C165.417969,14.140625 165.417969,14.140625 165.59375,14.140625 L165.59375,14.140625 L166.121094,14.2109375 L166.397321,14.0728237 C167.210938,13.6358817 167.210938,13.6358817 167.84375,12.9277344 C168.582031,12.1015625 168.582031,12.1015625 169.355469,10.9414062 L169.355469,10.9414062 L169.707031,10.4492188 Z M153.957031,5.3515625 C154.414063,6.01953125 154.414063,6.01953125 154.765625,6.79296875 C155.117188,7.56640625 155.117188,7.56640625 155.46875,8.35742188 C155.820313,9.1484375 155.820313,9.1484375 156.224609,9.8515625 C156.628906,10.5546875 156.628906,10.5546875 157.261719,11.046875 C157.367188,12.2773438 157.367188,12.2773438 157.4375,13.5605469 C157.507813,14.84375 157.507813,14.84375 157.542969,16.2148438 C157.226563,17.796875 157.226563,17.796875 156.822266,19.2910156 C156.417969,20.7851562 156.417969,20.7851562 156.242188,22.4726562 C155.960938,22.7890625 155.960938,22.7890625 155.785156,23.2285156 C155.609375,23.6679688 155.609375,23.6679688 155.451172,24.1074219 C155.292969,24.546875 155.292969,24.546875 155.082031,24.96875 C154.871094,25.390625 154.871094,25.390625 154.554688,25.671875 C154.695313,26.1640625 154.695313,26.1640625 154.607422,26.6035156 C154.519531,27.0429688 154.519531,27.0429688 154.835938,27.640625 C154.90625,28.7304688 154.90625,28.7304688 154.572266,29.4511719 C154.238281,30.171875 154.238281,30.171875 153.658203,30.6816406 C153.078125,31.1914062 153.078125,31.1914062 152.322266,31.4902344 C151.566406,31.7890625 151.566406,31.7890625 150.828125,32.0351562 C150.476563,31.8242188 150.476563,31.8242188 150.177734,31.5957031 C149.878906,31.3671875 149.878906,31.3671875 149.457031,31.2617188 L149.457031,31.2617188 L149.632813,30.9453125 L149.359297,30.6605469 C148.827734,30.0839844 148.827734,30.0839844 148.419922,29.4511719 C147.910156,28.6601562 147.910156,28.6601562 147.945313,27.640625 C147.945313,27.6054688 147.945313,27.6054688 148.015625,27.1660156 C148.085938,26.7265625 148.085938,26.7265625 148.173828,26.234375 C148.261719,25.7421875 148.261719,25.7421875 148.349609,25.3027344 C148.4375,24.8632812 148.4375,24.8632812 148.4375,24.828125 C147.453125,24.9335938 147.453125,24.9335938 146.398438,25.2851562 C145.34375,25.6367188 145.34375,25.6367188 144.341797,26.0761719 C143.339844,26.515625 143.339844,26.515625 142.478516,26.9902344 C141.617188,27.4648438 141.617188,27.4648438 141.089844,27.78125 C141.089844,27.8867188 141.089844,27.8867188 140.914063,28.3789062 C140.738281,28.8710938 140.738281,28.8710938 140.492188,29.4160156 C140.246094,29.9609375 140.246094,29.9609375 139.947266,30.3828125 C139.648438,30.8046875 139.648438,30.8046875 139.332031,30.7695312 C139.402344,30.9453125 139.402344,30.9453125 139.472656,31.0332031 C139.542969,31.1210938 139.542969,31.1210938 139.472656,31.3671875 C138.875,31.5429688 138.875,31.5429688 138.400391,31.8242188 C137.925781,32.1054688 137.925781,32.1054688 137.433594,32.2988281 C136.941406,32.4921875 136.941406,32.4921875 136.361328,32.4746094 C135.78125,32.4570312 135.78125,32.4570312 134.972656,32.0351562 C134.972656,31.7890625 134.972656,31.7890625 134.761719,31.5957031 C134.550781,31.4023438 134.550781,31.4023438 134.322266,31.2617188 C134.09375,31.1210938 134.09375,31.1210938 133.917969,31.015625 C133.742188,30.9101562 133.742188,30.9101562 133.742188,30.8046875 C133.636719,30.8398438 133.636719,30.8398438 133.601563,30.734375 C133.566406,30.6289062 133.566406,30.6289062 133.583984,30.5234375 C133.601563,30.4179688 133.601563,30.4179688 133.689453,30.3476562 C133.777344,30.2773438 133.777344,30.2773438 133.917969,30.3476562 C133.460938,29.7851562 133.460938,29.7851562 133.337891,29.328125 C133.214844,28.8710938 133.214844,28.8710938 132.863281,28.203125 C132.96875,28.0976562 132.96875,28.0976562 133.003906,27.9042969 C133.039063,27.7109375 133.039063,27.7109375 133.091797,27.5351562 C133.144531,27.359375 133.144531,27.359375 133.232422,27.2714844 C133.320313,27.1835938 133.320313,27.1835938 133.460938,27.3242188 C133.390625,26.9375 133.390625,26.9375 133.460938,26.6914062 C133.53125,26.4453125 133.53125,26.4453125 133.619141,26.234375 C133.707031,26.0234375 133.707031,26.0234375 133.742188,25.8125 C133.777344,25.6015625 133.777344,25.6015625 133.636719,25.3203125 C134.304688,24.40625 134.304688,24.40625 134.515625,23.3339844 C134.726563,22.2617188 134.726563,22.2617188 134.761719,21.3828125 C135.078125,21.0664062 135.078125,21.0664062 135.306641,20.5390625 C135.535156,20.0117188 135.535156,20.0117188 135.640625,19.4492188 C135.746094,18.8867188 135.746094,18.8867188 135.746094,18.3417969 C135.746094,17.796875 135.746094,17.796875 135.605469,17.4804688 C135.640625,17.3398438 135.640625,17.3398438 135.763672,17.3222656 C135.886719,17.3046875 135.886719,17.3046875 136.0625,17.3398438 C136.308594,15.9335938 136.308594,15.9335938 136.396484,14.2109375 C136.484375,12.4882812 136.484375,12.4882812 136.748047,10.8886719 C137.011719,9.2890625 137.011719,9.2890625 137.609375,8.07617188 C138.207031,6.86328125 138.207031,6.86328125 139.507813,6.51171875 C139.753906,7.390625 139.753906,7.390625 140.158203,8.05859375 C140.5625,8.7265625 140.5625,8.7265625 141.037109,9.359375 C141.511719,9.9921875 141.511719,9.9921875 142.003906,10.625 C142.496094,11.2578125 142.496094,11.2578125 142.917969,12.03125 C142.882813,12.8398438 142.882813,12.8398438 142.759766,13.8945312 C142.636719,14.9492188 142.636719,14.9492188 142.443359,16.0390625 C142.25,17.1289062 142.25,17.1289062 142.056641,18.1484375 C141.863281,19.1679688 141.863281,19.1679688 141.6875,19.8710938 C141.722656,20.046875 141.722656,20.046875 141.933594,20.0996094 C142.144531,20.1523438 142.144531,20.1523438 142.003906,20.5039062 C143.023438,20.2578125 143.023438,20.2578125 144.130859,20.0292969 C145.238281,19.8007812 145.238281,19.8007812 146.310547,19.5722656 C147.382813,19.34375 147.382813,19.34375 148.419922,19.0273438 C149.457031,18.7109375 149.457031,18.7109375 150.371094,18.2539062 C150.582031,16.5664062 150.582031,16.5664062 150.898438,14.9140625 C151.214844,13.2617188 151.214844,13.2617188 150.96875,11.5742188 C151.179688,11.3984375 151.179688,11.3984375 151.320313,11.1523438 C151.460938,10.90625 151.460938,10.90625 151.742188,10.8359375 C151.53125,10.0273438 151.53125,10.0273438 151.566406,9.13085938 C151.601563,8.234375 151.601563,8.234375 151.865234,7.4609375 C152.128906,6.6875 152.128906,6.6875 152.65625,6.10742188 C153.183594,5.52734375 153.183594,5.52734375 153.957031,5.3515625 Z M233.761719,10.5195312 C234.113281,11.1171875 234.113281,11.1171875 234.658203,11.5214844 C235.203125,11.9257812 235.203125,11.9257812 235.871094,12.2070312 C235.90625,12.453125 235.90625,12.453125 235.888672,12.5761719 C235.871094,12.6992188 235.871094,12.6992188 235.853516,12.8046875 C235.835938,12.9101562 235.835938,12.9101562 235.835938,13.0332031 C235.835938,13.15625 235.835938,13.15625 235.90625,13.4023438 C235.167969,14.5976562 235.167969,14.5976562 234.201172,15.0371094 C233.234375,15.4765625 233.234375,15.4765625 232.109375,15.6699219 C230.984375,15.8632812 230.984375,15.8632812 229.806641,16.0742188 C228.628906,16.2851562 228.628906,16.2851562 227.46875,16.9882812 C227.011719,16.8125 227.011719,16.8125 226.642578,16.9882812 C226.273438,17.1640625 226.273438,17.1640625 225.570313,17.09375 C225.359375,17.3046875 225.359375,17.3046875 225.042969,17.3925781 C224.726563,17.4804688 224.726563,17.4804688 224.410156,17.5859375 C224.550781,17.9023438 224.550781,17.9023438 224.533203,18.2363281 C224.515625,18.5703125 224.515625,18.5703125 224.621094,18.78125 C225.851563,18.8867188 225.851563,18.8867188 227.345703,18.7460938 C228.839844,18.6054688 228.839844,18.6054688 230.28125,18.5703125 C230.316406,18.7460938 230.316406,18.7460938 230.246094,18.7988281 C230.175781,18.8515625 230.175781,18.8515625 230.210938,18.9921875 C230.457031,19.1679688 230.457031,19.1679688 230.703125,19.4316406 C230.949219,19.6953125 230.949219,19.6953125 231.195313,19.9414062 C231.441406,20.1875 231.441406,20.1875 231.705078,20.3457031 C231.96875,20.5039062 231.96875,20.5039062 232.320313,20.46875 C232.460938,20.75 232.460938,20.75 232.513672,21.0839844 C232.566406,21.4179688 232.566406,21.4179688 232.425781,21.7695312 C231.863281,22.15625 231.863281,22.15625 231.300781,22.5605469 C230.738281,22.9648438 230.738281,22.9648438 230.123047,23.28125 C229.507813,23.5976562 229.507813,23.5976562 228.822266,23.7910156 C228.136719,23.984375 228.136719,23.984375 227.292969,23.9492188 L227.292969,23.9492188 L227.029297,23.9492188 L226.982056,23.942627 C226.90625,23.9228516 226.90625,23.9228516 226.800781,23.84375 C226.519531,24.0195312 226.519531,24.0195312 226.009766,23.9492188 C225.5,23.8789062 225.5,23.8789062 225.21875,24.0546875 C224.832031,23.8789062 224.832031,23.8789062 224.287109,23.8964844 C223.742188,23.9140625 223.742188,23.9140625 223.320313,23.7734375 C222.757813,24.5117188 222.757813,24.5117188 222.300781,25.3554688 C221.84375,26.1992188 221.84375,26.1992188 221.492188,27.1484375 C222.6875,27.3242188 222.6875,27.3242188 223.478516,27.2890625 C224.269531,27.2539062 224.269531,27.2539062 224.972656,27.1660156 C225.675781,27.078125 225.675781,27.078125 226.414063,26.9902344 C227.152344,26.9023438 227.152344,26.9023438 228.277344,26.9375 C228.980469,26.5507812 228.980469,26.5507812 229.947266,26.4277344 C230.914063,26.3046875 230.914063,26.3046875 231.722656,26.0234375 C232.003906,26.1289062 232.003906,26.1289062 232.214844,26.3925781 C232.425781,26.65625 232.425781,26.65625 232.619141,26.8847656 C232.8125,27.1132812 232.8125,27.1132812 233.023438,27.2890625 C233.234375,27.4648438 233.234375,27.4648438 233.550781,27.4296875 C233.691406,27.5703125 233.691406,27.5703125 233.744141,27.7636719 C233.796875,27.9570312 233.796875,27.9570312 233.832031,28.1328125 C233.867188,28.3085938 233.867188,28.3085938 233.955078,28.4316406 C234.042969,28.5546875 234.042969,28.5546875 234.253906,28.5195312 C233.726563,29.6796875 233.726563,29.6796875 233.041016,30.2949219 C232.355469,30.9101562 232.355469,30.9101562 231.476563,31.2265625 C230.597656,31.5429688 230.597656,31.5429688 229.525391,31.71875 C228.453125,31.8945312 228.453125,31.8945312 227.152344,32.140625 C226.835938,32.2109375 226.835938,32.2109375 226.625,32.1230469 C226.414063,32.0351562 226.414063,32.0351562 226.132813,32.0351562 C225.324219,32.2109375 225.324219,32.2109375 224.199219,32.3515625 C223.074219,32.4921875 223.074219,32.4921875 221.914063,32.4570312 C220.753906,32.421875 220.753906,32.421875 219.699219,32.1582031 C218.644531,31.8945312 218.644531,31.8945312 217.976563,31.2265625 C217.695313,30.9804688 217.695313,30.9804688 217.607422,30.6464844 C217.519531,30.3125 217.519531,30.3125 217.132813,30.1367188 C217.097656,29.6796875 217.097656,29.6796875 216.992188,29.1171875 C216.886719,28.5546875 216.886719,28.5546875 216.78125,27.9394531 C216.675781,27.3242188 216.675781,27.3242188 216.623047,26.7265625 C216.570313,26.1289062 216.570313,26.1289062 216.675781,25.6367188 C216.78125,25.109375 216.78125,25.109375 217.115234,24.6875 C217.449219,24.265625 217.449219,24.265625 217.34375,23.7734375 C217.519531,23.7382812 217.519531,23.7382812 217.554688,23.5800781 C217.589844,23.421875 217.589844,23.421875 217.835938,23.4570312 C218.046875,22.8242188 218.046875,22.8242188 218.292969,22.2617188 C218.539063,21.6992188 218.539063,21.6992188 218.802734,21.171875 C219.066406,20.6445312 219.066406,20.6445312 219.330078,20.0996094 C219.59375,19.5546875 219.59375,19.5546875 219.839844,18.8867188 C219.347656,18.4296875 219.347656,18.4296875 219.119141,17.8847656 C218.890625,17.3398438 218.890625,17.3398438 218.785156,16.7949219 C218.679688,16.25 218.679688,16.25 218.609375,15.6699219 C218.539063,15.0898438 218.539063,15.0898438 218.363281,14.4921875 C218.714844,13.9648438 218.714844,13.9648438 219.224609,13.6308594 C219.734375,13.296875 219.734375,13.296875 220.332031,13.0859375 C220.929688,12.875 220.929688,12.875 221.632813,12.734375 C222.335938,12.59375 222.335938,12.59375 223.109375,12.4179688 C224.515625,11.9609375 224.515625,11.9609375 225.623047,11.7148438 C226.730469,11.46875 226.730469,11.46875 227.802734,11.3105469 C228.875,11.1523438 228.875,11.1523438 230.035156,11.0117188 C231.195313,10.8710938 231.195313,10.8710938 232.671875,10.5898438 C232.988281,10.90625 232.988281,10.90625 233.269531,10.90625 C233.410156,10.5898438 233.410156,10.5898438 233.603516,10.7128906 C233.796875,10.8359375 233.796875,10.8359375 233.761719,10.5195312 Z M95.7734375,10.4140625 C96.0546875,10.765625 96.0546875,10.765625 96.1425781,11.1875 L96.1425781,11.1875 L96.3183594,12.03125 L96.3677979,12.2388916 C96.4501953,12.5454102 96.4501953,12.5454102 96.5820313,12.8222656 C96.7578125,13.1914062 96.7578125,13.1914062 97.1796875,13.4023438 L97.1796875,13.4023438 L97.1796875,14.1054688 L97.1835938,14.3847656 C97.1914063,14.6621094 97.1914063,14.6621094 97.2148438,14.9316406 C97.25,15.3359375 97.25,15.3359375 97.3730469,15.6699219 C97.4960938,16.0039062 97.4960938,16.0039062 97.7773438,16.109375 C97.1445313,17.796875 97.1445313,17.796875 96.5996094,19.4492188 C96.0546875,21.1015625 96.0546875,21.1015625 95.703125,22.7714844 C95.3515625,24.4414062 95.3515625,24.4414062 95.2636719,26.1289062 C95.1757813,27.8164062 95.1757813,27.8164062 95.4921875,29.5390625 C95.6679688,30.59375 95.6679688,30.59375 95.3691406,31.1914062 C95.0703125,31.7890625 95.0703125,31.7890625 94.5253906,32.0878906 C93.9804688,32.3867188 93.9804688,32.3867188 93.2773438,32.421875 L93.2773438,32.421875 L92.9301758,32.4306641 L92.5917969,32.421875 C92.2578125,32.4042969 92.2578125,32.4042969 91.9414063,32.3515625 C91.5898438,31.859375 91.5898438,31.859375 91.3085938,31.1210938 C91.0273438,30.3828125 91.0273438,30.3828125 90.78125,29.5917969 C90.5351563,28.8007812 90.5351563,28.8007812 90.3417969,28.0273438 C90.1484375,27.2539062 90.1484375,27.2539062 90.0078125,26.65625 C90.1835938,26.234375 90.1835938,26.234375 90.2363281,25.6894531 C90.2890625,25.1445312 90.2890625,25.1445312 90.3066406,24.5820312 C90.3242188,24.0195312 90.3242188,24.0195312 90.3417969,23.4394531 C90.359375,22.859375 90.359375,22.859375 90.4296875,22.3320312 C90.6757813,20.8554688 90.6757813,20.8554688 91.1503906,19.5195312 C91.625,18.1835938 91.625,18.1835938 91.90625,16.7421875 C91.9765625,16.4257812 91.9765625,16.4257812 91.8535156,16.1445312 C91.7304688,15.8632812 91.7304688,15.8632812 91.8007813,15.6171875 C91.8359375,15.4765625 91.8359375,15.4765625 92.0117188,15.4238281 C92.1875,15.3710938 92.1875,15.3710938 92.2226563,15.1953125 C92.328125,14.8085938 92.328125,14.8085938 92.2753906,14.5625 C92.2226563,14.3164062 92.2226563,14.3164062 92.3984375,13.9648438 C92.5742188,13.6835938 92.5742188,13.6835938 92.8378906,13.1386719 C93.1015625,12.59375 93.1015625,12.59375 93.03125,11.9960938 C93.3476563,11.7851562 93.3476563,11.7851562 93.6289063,11.5039062 C93.9101563,11.2226562 93.9101563,11.2226562 94.2089844,10.9941406 C94.5078125,10.765625 94.5078125,10.765625 94.8769531,10.5898438 C95.2460938,10.4140625 95.2460938,10.4140625 95.7734375,10.4140625 Z M116.445313,10.2734375 C116.972656,10.34375 116.972656,10.34375 117.341797,10.6074219 C117.710938,10.8710938 117.710938,10.8710938 118.027344,11.1699219 C118.34375,11.46875 118.34375,11.46875 118.695313,11.7324219 C119.046875,11.9960938 119.046875,11.9960938 119.574219,12.0664062 C119.996094,12.6640625 119.996094,12.6640625 120.347656,13.2265625 C120.699219,13.7890625 120.699219,13.7890625 120.804688,14.421875 C120.628906,14.703125 120.628906,14.703125 120.541016,15.0546875 C120.453125,15.40625 120.453125,15.40625 120.347656,15.7578125 C120.242188,16.109375 120.242188,16.109375 120.066406,16.4082031 C119.890625,16.7070312 119.890625,16.7070312 119.574219,16.9179688 C119.46875,17.8320312 119.46875,17.8320312 119.310547,18.5878906 C119.152344,19.34375 119.152344,19.34375 118.994141,20.0820312 C118.835938,20.8203125 118.835938,20.8203125 118.730469,21.6113281 C118.625,22.4023438 118.625,22.4023438 118.660156,23.3515625 C118.378906,24.1601562 118.378906,24.1601562 118.0625,25.0742188 C117.746094,25.9882812 117.746094,25.9882812 117.570313,26.7265625 C117.007813,27.1835938 117.007813,27.1835938 116.691406,27.8164062 C116.375,28.4492188 116.375,28.4492188 116.023438,29.0820312 C115.882813,29.2226562 115.882813,29.2226562 115.847656,29.1523438 C115.8125,29.0820312 115.8125,29.0820312 115.601563,29.046875 C115.636719,29.1875 115.636719,29.1875 115.601563,29.2578125 C115.566406,29.328125 115.566406,29.328125 115.513672,29.3808594 C115.460938,29.4335938 115.460938,29.4335938 115.443359,29.5390625 C115.425781,29.6445312 115.425781,29.6445312 115.496094,29.8203125 C115.003906,30.03125 115.003906,30.03125 114.617188,30.4179688 C114.230469,30.8046875 114.230469,30.8046875 113.791016,31.1210938 C113.351563,31.4375 113.351563,31.4375 112.736328,31.5429688 C112.121094,31.6484375 112.121094,31.6484375 111.136719,31.296875 C109.695313,30.2421875 109.695313,30.2421875 108.587891,28.8710938 C107.480469,27.5 107.480469,27.5 106.777344,25.6015625 C106.460938,25.671875 106.460938,25.671875 106.320313,25.9707031 C106.179688,26.2695312 106.179688,26.2695312 106.056641,26.5859375 C105.933594,26.9023438 105.933594,26.9023438 105.810547,27.1660156 C105.6875,27.4296875 105.6875,27.4296875 105.441406,27.4296875 C105.40625,27.7109375 105.40625,27.7109375 105.248047,27.921875 C105.089844,28.1328125 105.089844,28.1328125 104.949219,28.3613281 C104.808594,28.5898438 104.808594,28.5898438 104.738281,28.8535156 C104.667969,29.1171875 104.667969,29.1171875 104.808594,29.46875 C104.527344,29.6796875 104.527344,29.6796875 104.457031,30.0664062 C104.386719,30.453125 104.386719,30.453125 104.298828,30.8046875 C104.210938,31.15625 104.210938,31.15625 104,31.4023438 C103.789063,31.6484375 103.789063,31.6484375 103.226563,31.6132812 C103.121094,31.7539062 103.121094,31.7539062 103.191406,31.7890625 C103.261719,31.8242188 103.261719,31.8242188 103.296875,32.0351562 C102.910156,31.9648438 102.910156,31.9648438 102.716797,32.0878906 C102.523438,32.2109375 102.523438,32.2109375 102.242188,32.2460938 C101.574219,32.0351562 101.574219,32.0351562 101.134766,31.5078125 C100.695313,30.9804688 100.695313,30.9804688 100.361328,30.3300781 C100.027344,29.6796875 100.027344,29.6796875 99.7636719,29.0117188 C99.5,28.34375 99.5,28.34375 99.2539063,27.8515625 C99.359375,27.4648438 99.359375,27.4648438 99.2890625,27.0957031 C99.21875,26.7265625 99.21875,26.7265625 99.0429688,26.4804688 C100.765625,22.8242188 100.765625,22.8242188 102.804688,18.6757812 C104.84375,14.5273438 104.84375,14.5273438 106.671875,10.484375 C107.480469,10.8007812 107.480469,10.8007812 108.271484,11.2050781 C109.0625,11.609375 109.0625,11.609375 109.712891,12.1367188 C110.363281,12.6640625 110.363281,12.6640625 110.820313,13.3496094 C111.277344,14.0351562 111.277344,14.0351562 111.417969,14.8789062 C111.347656,15.0898438 111.347656,15.0898438 111.259766,15.0371094 C111.171875,14.984375 111.171875,14.984375 111.101563,15.0898438 C111.242188,15.265625 111.242188,15.265625 111.259766,15.3359375 C111.277344,15.40625 111.277344,15.40625 111.259766,15.4765625 C111.242188,15.546875 111.242188,15.546875 111.242188,15.6699219 C111.242188,15.7929688 111.242188,15.7929688 111.347656,16.0039062 C111.207031,15.96875 111.207031,15.96875 111.154297,16.0390625 C111.101563,16.109375 111.101563,16.109375 110.925781,16.0390625 C111.066406,16.4257812 111.066406,16.4257812 111.013672,16.671875 C110.960938,16.9179688 110.960938,16.9179688 110.855469,17.1113281 C110.75,17.3046875 110.75,17.3046875 110.679688,17.5332031 C110.609375,17.7617188 110.609375,17.7617188 110.714844,18.1132812 C110.609375,18.1132812 110.609375,18.1132812 110.556641,18.1660156 C110.503906,18.21875 110.503906,18.21875 110.46875,18.2714844 C110.433594,18.3242188 110.433594,18.3242188 110.380859,18.3769531 C110.328125,18.4296875 110.328125,18.4296875 110.222656,18.3945312 C110.328125,19.1679688 110.328125,19.1679688 110.292969,19.9414062 C110.257813,20.7148438 110.257813,20.7148438 110.240234,21.5058594 C110.222656,22.296875 110.222656,22.296875 110.257813,23.1582031 C110.292969,24.0195312 110.292969,24.0195312 110.503906,24.9335938 C111.769531,24.1953125 111.769531,24.1953125 112.525391,23.0351562 C113.28125,21.875 113.28125,21.875 113.755859,20.4335938 C114.230469,18.9921875 114.230469,18.9921875 114.476563,17.3398438 C114.722656,15.6875 114.722656,15.6875 115.003906,13.9648438 C115.320313,13.6484375 115.320313,13.6484375 115.496094,13.1914062 C115.671875,12.734375 115.671875,12.734375 115.8125,12.2246094 C115.953125,11.7148438 115.953125,11.7148438 116.09375,11.2050781 C116.234375,10.6953125 116.234375,10.6953125 116.445313,10.2734375 Z M22.15625,6.125 C22.3671875,6.08984375 22.3671875,6.08984375 22.5078125,6.1953125 C22.6484375,6.30078125 22.6484375,6.30078125 22.7714844,6.42382812 C22.8945313,6.546875 22.8945313,6.546875 22.9824219,6.58203125 C23.0703125,6.6171875 23.0703125,6.6171875 23.1757813,6.37109375 C23.4570313,6.40625 23.4570313,6.40625 23.3339844,6.6171875 C23.2109375,6.828125 23.2109375,6.828125 23.1757813,6.8984375 C23.5273438,6.828125 23.5273438,6.828125 23.7558594,7.02148438 C23.984375,7.21484375 23.984375,7.21484375 24.4765625,7.28515625 C24.6523438,7.4609375 24.6523438,7.4609375 24.5820313,7.56640625 C24.5117188,7.671875 24.5117188,7.671875 24.4765625,7.91796875 C25.7421875,8.3046875 25.7421875,8.3046875 26.09375,9.13085938 C26.4453125,9.95703125 26.4453125,9.95703125 26.1640625,10.8535156 C25.8828125,11.75 25.8828125,11.75 25.1269531,12.5058594 C24.3710938,13.2617188 24.3710938,13.2617188 23.4570313,13.5078125 C22.3671875,13.7890625 22.3671875,13.7890625 21.4355469,14.0703125 C20.5039063,14.3515625 20.5039063,14.3515625 19.6425781,14.703125 C18.78125,15.0546875 18.78125,15.0546875 18.0253906,15.5292969 C17.2695313,16.0039062 17.2695313,16.0039062 16.7070313,16.6367188 C15.7226563,16.9179688 15.7226563,16.9179688 14.9316406,17.4101562 C14.140625,17.9023438 14.140625,17.9023438 13.4550781,18.5 C12.7695313,19.0976562 12.7695313,19.0976562 12.1367188,19.7480469 C11.5039063,20.3984375 11.5039063,20.3984375 10.8710938,21.03125 C10.8710938,21.6289062 10.8710938,21.6289062 10.6601563,21.9453125 C10.4492188,22.2617188 10.4492188,22.2617188 10.203125,22.578125 C10.2734375,23.2460938 10.2734375,23.2460938 10.5019531,23.7207031 C10.7304688,24.1953125 10.7304688,24.1953125 10.9765625,24.6875 C13.7890625,25.53125 13.7890625,25.53125 16.9355469,25.7246094 C20.0820313,25.9179688 20.0820313,25.9179688 23.1757813,25.953125 C23.4921875,26.375 23.4921875,26.375 23.8964844,26.7441406 C24.3007813,27.1132812 24.3007813,27.1132812 24.6347656,27.5 C24.96875,27.8867188 24.96875,27.8867188 25.1621094,28.3964844 C25.3554688,28.90625 25.3554688,28.90625 25.25,29.609375 C24.6523438,30.2070312 24.6523438,30.2070312 23.9492188,30.7519531 C23.2460938,31.296875 23.2460938,31.296875 22.5429688,31.8242188 C22.2265625,31.859375 22.2265625,31.859375 21.7871094,31.8242188 C21.3476563,31.7890625 21.3476563,31.7890625 20.8730469,31.7890625 C20.3984375,31.7890625 20.3984375,31.7890625 19.9238281,31.8417969 C19.4492188,31.8945312 19.4492188,31.8945312 19.0273438,32.0703125 C16.8125,32 16.8125,32 14.4921875,31.5253906 C12.171875,31.0507812 12.171875,31.0507812 10.203125,30.3828125 C9.81640625,29.9257812 9.81640625,29.9257812 9.39453125,29.5214844 C8.97265625,29.1171875 8.97265625,29.1171875 8.26953125,28.9414062 C7.25,28.1679688 7.25,28.1679688 6.59960938,27.0078125 C5.94921875,25.8476562 5.94921875,25.8476562 5.58007813,24.546875 C5.2109375,23.2460938 5.2109375,23.2460938 5.08789063,21.8574219 C5.01624073,21.0488016 5.01624073,21.0488016 4.99823284,20.281903 L5,19.203125 C5.31640625,18.2539062 5.31640625,18.2539062 5.7734375,17.4628906 C6.23046875,16.671875 6.23046875,16.671875 6.79296875,15.9511719 C7.35546875,15.2304688 7.35546875,15.2304688 7.97070313,14.5800781 C8.5859375,13.9296875 8.5859375,13.9296875 9.18359375,13.2617188 C9.39453125,13.2617188 9.39453125,13.2617188 9.5703125,13.3671875 C9.7109375,12.9804688 9.7109375,12.9804688 9.9921875,12.6992188 C10.2734375,12.4179688 10.2734375,12.4179688 10.5898438,12.1894531 C10.90625,11.9609375 10.90625,11.9609375 11.2226563,11.7324219 C11.5390625,11.5039062 11.5390625,11.5039062 11.75,11.1875 C12.6289063,10.9765625 12.6289063,10.9765625 13.3144531,10.5898438 C14,10.203125 14,10.203125 14.6328125,9.74609375 C15.265625,9.2890625 15.265625,9.2890625 15.9335938,8.90234375 C16.6015625,8.515625 16.6015625,8.515625 17.4804688,8.3046875 C17.796875,7.953125 17.796875,7.953125 18.2714844,7.70703125 C18.7460938,7.4609375 18.7460938,7.4609375 19.2207031,7.25 C19.6953125,7.0390625 19.6953125,7.0390625 20.1347656,6.79296875 C20.5742188,6.546875 20.5742188,6.546875 20.8554688,6.125 C21.0664063,6.40625 21.0664063,6.40625 21.453125,6.31835938 C21.8398438,6.23046875 21.8398438,6.23046875 22.15625,6.125 Z M40.8945313,17.796875 C40.8242188,17.9375 40.8242188,17.9375 40.6484375,18.078125 C40.4726563,18.21875 40.4726563,18.21875 40.2617188,18.0078125 C40.1914063,18.2890625 40.1914063,18.2890625 40.015625,18.4121094 C39.8398438,18.5351562 39.8398438,18.5351562 39.6289063,18.5175781 C39.4179688,18.5 39.4179688,18.5 39.1894531,18.4121094 C38.9609375,18.3242188 38.9609375,18.3242188 38.7851563,18.1835938 C37.765625,18.9921875 37.765625,18.9921875 36.7460938,19.765625 C35.7265625,20.5390625 35.7265625,20.5390625 34.9179688,21.5585938 C34.7773438,21.6289062 34.7773438,21.6289062 34.7421875,21.6113281 C34.7070313,21.59375 34.7070313,21.59375 34.53125,21.6640625 C34.25,22.3320312 34.25,22.3320312 33.8457031,22.8769531 C33.4414063,23.421875 33.4414063,23.421875 33.0546875,23.984375 C32.6679688,24.546875 32.6679688,24.546875 32.3867188,25.1796875 C32.1054688,25.8125 32.1054688,25.8125 32.0703125,26.65625 C32.6679688,27.1484375 32.6679688,27.1484375 33.4765625,27.2539062 C34.2851563,27.359375 34.2851563,27.359375 35.1464844,27.2890625 C36.0078125,27.21875 36.0078125,27.21875 36.8339844,27.0605469 C37.6601563,26.9023438 37.6601563,26.9023438 38.3632813,26.9023438 C39.8398438,26.5507812 39.8398438,26.5507812 40.8945313,25.9707031 C41.9492188,25.390625 41.9492188,25.390625 43.109375,24.7929688 C43.25,24.40625 43.25,24.40625 43.4785156,24.1601562 C43.7070313,23.9140625 43.7070313,23.9140625 43.7421875,23.421875 C43.5664063,23.140625 43.5664063,23.140625 43.53125,22.9824219 C43.4960938,22.8242188 43.4960938,22.8242188 43.4960938,22.4726562 C42.7226563,21.3828125 42.7226563,21.3828125 42.1601563,20.1347656 C41.5976563,18.8867188 41.5976563,18.8867188 40.8945313,17.796875 Z M185,15.8984375 C184.753906,15.8984375 184.753906,15.8984375 184.613281,16.0039062 C184.964844,17.3398438 184.964844,17.3398438 185.140625,18.5175781 C185.316406,19.6953125 185.316406,19.6953125 185.333984,20.8730469 C185.351563,22.0507812 185.351563,22.0507812 185.210938,23.28125 C185.070313,24.5117188 185.070313,24.5117188 184.824219,25.953125 C185.175781,25.9179688 185.175781,25.9179688 185.474609,25.7949219 C185.773438,25.671875 185.773438,25.671875 186.072266,25.53125 C186.371094,25.390625 186.371094,25.390625 186.705078,25.2675781 C187.039063,25.1445312 187.039063,25.1445312 187.496094,25.109375 C187.601563,24.8984375 187.601563,24.8984375 187.794922,24.7578125 C187.988281,24.6171875 187.988281,24.6171875 188.164063,24.4414062 C188.902344,24.1601562 188.902344,24.1601562 189.623047,23.84375 C190.34375,23.5273438 190.34375,23.5273438 190.958984,23.1230469 C191.574219,22.71875 191.574219,22.71875 192.066406,22.1914062 C192.558594,21.6640625 192.558594,21.6640625 192.875,20.9257812 C192.664063,20.5039062 192.664063,20.5039062 192.3125,20.1699219 C191.960938,19.8359375 191.960938,19.8359375 191.609375,19.5371094 C191.257813,19.2382812 191.257813,19.2382812 190.923828,18.921875 C190.589844,18.6054688 190.589844,18.6054688 190.378906,18.1484375 C189.921875,18.078125 189.921875,18.078125 189.570313,17.8847656 C189.21875,17.6914062 189.21875,17.6914062 188.884766,17.4980469 C188.550781,17.3046875 188.550781,17.3046875 188.181641,17.1289062 C187.8125,16.953125 187.8125,16.953125 187.320313,16.9179688 C186.546875,16.53125 186.546875,16.53125 185.931641,16.3554688 C185.316406,16.1796875 185.316406,16.1796875 185,15.8984375 Z M169.390625,18.0429688 L169.179688,18.3945312 L168.900547,18.696875 C168.346484,19.315625 168.346484,19.315625 167.826172,20.046875 C167.175781,20.9609375 167.175781,20.9609375 166.71875,21.7695312 L166.71875,21.7695312 L166.296875,22.4023438 L166.160156,22.6132812 C166.027344,22.8242188 166.027344,22.8242188 165.910156,23.0351562 C166.121094,23 166.121094,23 166.314453,23 C166.507813,23 166.507813,23 166.683594,22.9648438 C167.738281,22.8945312 167.738281,22.8945312 168.599609,22.8066406 C169.460938,22.71875 169.460938,22.71875 170.515625,22.5078125 C170.269531,21.453125 170.269531,21.453125 169.988281,20.3105469 C169.707031,19.1679688 169.707031,19.1679688 169.390625,18.0429688 L169.390625,18.0429688 Z" id="Combined-Shape" fill="#FFFFFF"></path>
    </g>
</svg>